<svg xmlns="http://www.w3.org/2000/svg" xmlns:svg="http://www.w3.org/2000/svg" xmlns:xlink="http://www.w3.org/1999/xlink" id="svg4013" width="64" height="64" version="1.1"><defs id="defs4015"><linearGradient id="linearGradient5930"><stop id="stop5932" offset="0" stop-color="#000" stop-opacity="1"/><stop id="stop5934" offset="1" stop-color="#000" stop-opacity="0"/></linearGradient><linearGradient id="linearGradient5922"><stop id="stop5924" offset="0" stop-color="#000" stop-opacity="1"/><stop id="stop5926" offset="1" stop-color="#000" stop-opacity="0"/></linearGradient><linearGradient id="linearGradient5914"><stop id="stop5916" offset="0" stop-color="#000" stop-opacity="1"/><stop id="stop5918" offset="1" stop-color="#000" stop-opacity="0"/></linearGradient><linearGradient id="linearGradient5906"><stop id="stop5908" offset="0" stop-color="#000" stop-opacity="1"/><stop id="stop5910" offset="1" stop-color="#000" stop-opacity="0"/></linearGradient><linearGradient id="linearGradient5898"><stop id="stop5900" offset="0" stop-color="#000" stop-opacity="1"/><stop id="stop5902" offset="1" stop-color="#000" stop-opacity="0"/></linearGradient><linearGradient id="linearGradient5890"><stop id="stop5892" offset="0" stop-color="#000" stop-opacity="1"/><stop id="stop5894" offset="1" stop-color="#000" stop-opacity="0"/></linearGradient><linearGradient id="linearGradient5882"><stop id="stop5884" offset="0" stop-color="#000" stop-opacity="1"/><stop id="stop5886" offset="1" stop-color="#000" stop-opacity="0"/></linearGradient><linearGradient id="linearGradient5091"><stop id="stop5093" offset="0" stop-color="#fff" stop-opacity="1"/><stop id="stop5095" offset="1" stop-color="#fff" stop-opacity="0"/></linearGradient><linearGradient id="linearGradient4933"><stop id="stop4935" offset="0" stop-color="#634e33" stop-opacity="1"/><stop id="stop4937" offset="1" stop-color="#cebbcc" stop-opacity="1"/></linearGradient><linearGradient id="linearGradient4925"><stop id="stop4927" offset="0" stop-color="#22161e" stop-opacity="1"/><stop id="stop4929" offset="1" stop-color="#e3dae1" stop-opacity="1"/></linearGradient><radialGradient id="radialGradient4939" cx="366.616" cy="495.353" r="20.908" fx="366.616" fy="495.353" gradientTransform="matrix(1.7301527,-0.4200455,0.39136247,1.6120084,-461.54834,-148.33722)" gradientUnits="userSpaceOnUse" xlink:href="#linearGradient4933"/><linearGradient id="linearGradient5097" x1="403.533" x2="379.498" y1="503.96" y2="481.737" gradientTransform="translate(-388.57143,513.57143)" gradientUnits="userSpaceOnUse" xlink:href="#linearGradient5091"/><filter id="filter5146" color-interpolation-filters="sRGB"><feGaussianBlur id="feGaussianBlur5148" stdDeviation=".845"/></filter><filter id="filter5218" width="1.191" height="2.198" x="-.095" y="-.599" color-interpolation-filters="sRGB"><feGaussianBlur id="feGaussianBlur5220" stdDeviation="6.953"/></filter><filter id="filter5274" width="1.802" height="1.42" x="-.401" y="-.21" color-interpolation-filters="sRGB"><feGaussianBlur id="feGaussianBlur5276" stdDeviation="4.472"/></filter><filter id="filter5328" width="1.912" height="1.658" x="-.456" y="-.329" color-interpolation-filters="sRGB"><feGaussianBlur id="feGaussianBlur5330" stdDeviation="6.287"/></filter><filter id="filter5348" width="2.173" height="1.515" x="-.586" y="-.258" color-interpolation-filters="sRGB"><feGaussianBlur id="feGaussianBlur5350" stdDeviation="5.694"/></filter><filter id="filter5352" width="1.447" height="2.118" x="-.224" y="-.559" color-interpolation-filters="sRGB"><feGaussianBlur id="feGaussianBlur5354" stdDeviation="4.893"/></filter><filter id="filter5416" width="2.496" height="1.488" x="-.748" y="-.244" color-interpolation-filters="sRGB"><feGaussianBlur id="feGaussianBlur5418" stdDeviation="5.612"/></filter><linearGradient id="linearGradient5888" x1="455.627" x2="458.452" y1="726.224" y2="718.367" gradientTransform="translate(-394.28572,294.28572)" gradientUnits="userSpaceOnUse" xlink:href="#linearGradient5882"/><linearGradient id="linearGradient5896" x1="434.556" x2="441.206" y1="770.81" y2="764.025" gradientTransform="translate(-394.28572,294.28572)" gradientUnits="userSpaceOnUse" xlink:href="#linearGradient5890"/><linearGradient id="linearGradient5904" x1="451.071" x2="448.929" y1="665.757" y2="657.543" gradientTransform="translate(-394.28572,294.28572)" gradientUnits="userSpaceOnUse" xlink:href="#linearGradient5898"/><linearGradient id="linearGradient5912" x1="392.144" x2="382.725" y1="674.269" y2="674.269" gradientTransform="translate(-394.28572,294.28572)" gradientUnits="userSpaceOnUse" xlink:href="#linearGradient5906"/><linearGradient id="linearGradient5920" x1="359.819" x2="357.749" y1="711.15" y2="695.793" gradientTransform="translate(-394.28572,294.28572)" gradientUnits="userSpaceOnUse" xlink:href="#linearGradient5914"/><linearGradient id="linearGradient5928" x1="350.948" x2="346.252" y1="738.139" y2="733.497" gradientTransform="translate(-394.28572,294.28572)" gradientUnits="userSpaceOnUse" xlink:href="#linearGradient5922"/><linearGradient id="linearGradient5936" x1="384.204" x2="372.399" y1="775.65" y2="776.722" gradientTransform="translate(-394.28572,294.28572)" gradientUnits="userSpaceOnUse" xlink:href="#linearGradient5930"/><radialGradient id="radialGradient5938" cx="454.113" cy="557.926" r="29.351" fx="454.113" fy="557.926" gradientTransform="matrix(0.77507154,0.78119012,-0.7849934,0.77884502,145.8798,285.91467)" gradientUnits="userSpaceOnUse" xlink:href="#linearGradient4925"/><clipPath id="clipPath4710" clipPathUnits="userSpaceOnUse"><path id="path4712" fill="#fb0000" fill-opacity="1" stroke="none" d="m 400.15873,812.68675 c 7.61237,3.45865 19.13813,7.19323 31.33486,4.3925 12.5707,-2.88661 21.52104,-10.42986 28.9933,-20.94273 2.77394,-3.9027 0.0155,-8.28296 -1.71918,-11.38215 3.59501,3.12561 5.05022,4.99131 10.22408,3.80076 9.49121,-2.18401 17.78991,-6.71526 22.60587,-15.41752 4.85314,-8.76943 3.03046,-19.13988 3.03046,-28.78935 0,-2.10953 -1.42446,-3.51577 -3.03046,-5.55584 2.18991,-0.25024 4.67422,-1.27585 5.55584,-4.04061 3.07954,-9.65742 4.90382,-20.45102 2.52538,-30.30457 -2.56775,-10.6378 -10.23818,-19.42877 -16.66751,-28.28427 -2.59635,-3.5761 -6.28963,-6.35047 -10.10153,-8.5863 -13.77082,-8.07712 -12.00796,-22.18955 -42.4264,-22.22336 -21.16091,-0.0235 -29.51403,8.06836 -39.8704,17.22861 -1.13496,1.00389 -0.11786,4.6236 -0.53571,6.50998 -1.2205,-1.43411 -5.36099,-3.96693 -8.08122,-3.03046 -8.35404,2.87598 -16.4304,7.44061 -22.72843,13.63706 -4.56202,4.48844 -6.18512,11.24027 -8.5863,17.17259 -0.50534,1.24848 1.03969,3.18439 0,4.04061 -2.34291,1.92945 -6.66908,0.67752 -8.58629,3.03046 -5.85685,7.18795 -11.11548,15.32116 -13.63706,24.24366 -2.01512,7.13042 -0.58081,14.89366 0.50507,22.22336 0.30117,2.03289 3.53554,2.99568 3.53554,5.05076 0,6.17443 -5.08043,12.20471 -3.53554,18.18275 2.56545,9.92718 7.08992,20.43432 15.15229,26.76904 9.54632,7.50068 22.29053,10.68051 34.34519,12.12183 4.5628,0.54555 9.54591,-4.24944 12.12183,-6.56599 1.52479,2.56309 7.84216,5.93127 9.57632,6.71918 z"/></clipPath><filter id="filter4852" width="1.545" height="1.539" x="-.273" y="-.269" color-interpolation-filters="sRGB"><feGaussianBlur id="feGaussianBlur4854" stdDeviation="5.565"/></filter><filter id="filter4924" width="1.416" height="1.457" x="-.208" y="-.228" color-interpolation-filters="sRGB"><feGaussianBlur id="feGaussianBlur4926" stdDeviation="13.624"/></filter><radialGradient id="radialGradient3758" cx="454.113" cy="557.926" r="29.351" fx="454.113" fy="557.926" gradientTransform="matrix(0.77507154,0.78119012,-0.7849934,0.77884502,145.8798,285.91467)" gradientUnits="userSpaceOnUse" xlink:href="#linearGradient4925"/><radialGradient id="radialGradient3760" cx="366.616" cy="495.353" r="20.908" fx="366.616" fy="495.353" gradientTransform="matrix(1.7301527,-0.4200455,0.39136247,1.6120084,-461.54834,-148.33722)" gradientUnits="userSpaceOnUse" xlink:href="#linearGradient4933"/><linearGradient id="linearGradient3762" x1="403.533" x2="379.498" y1="503.96" y2="481.737" gradientTransform="translate(-388.57143,513.57143)" gradientUnits="userSpaceOnUse" xlink:href="#linearGradient5091"/><linearGradient id="linearGradient3764" x1="384.204" x2="372.399" y1="775.65" y2="776.722" gradientTransform="translate(-394.28572,294.28572)" gradientUnits="userSpaceOnUse" xlink:href="#linearGradient5930"/><linearGradient id="linearGradient3766" x1="434.556" x2="441.206" y1="770.81" y2="764.025" gradientTransform="translate(-394.28572,294.28572)" gradientUnits="userSpaceOnUse" xlink:href="#linearGradient5890"/><linearGradient id="linearGradient3768" x1="455.627" x2="458.452" y1="726.224" y2="718.367" gradientTransform="translate(-394.28572,294.28572)" gradientUnits="userSpaceOnUse" xlink:href="#linearGradient5882"/><linearGradient id="linearGradient3770" x1="392.144" x2="382.725" y1="674.269" y2="674.269" gradientTransform="translate(-394.28572,294.28572)" gradientUnits="userSpaceOnUse" xlink:href="#linearGradient5906"/><linearGradient id="linearGradient3772" x1="359.819" x2="357.749" y1="711.15" y2="695.793" gradientTransform="translate(-394.28572,294.28572)" gradientUnits="userSpaceOnUse" xlink:href="#linearGradient5914"/><linearGradient id="linearGradient3774" x1="350.948" x2="346.252" y1="738.139" y2="733.497" gradientTransform="translate(-394.28572,294.28572)" gradientUnits="userSpaceOnUse" xlink:href="#linearGradient5922"/><linearGradient id="linearGradient3776" x1="451.071" x2="448.929" y1="665.757" y2="657.543" gradientTransform="translate(-394.28572,294.28572)" gradientUnits="userSpaceOnUse" xlink:href="#linearGradient5898"/><linearGradient id="linearGradient3895" x1="451.071" x2="448.929" y1="665.757" y2="657.543" gradientTransform="translate(-394.28572,294.28572)" gradientUnits="userSpaceOnUse" xlink:href="#linearGradient5898"/><linearGradient id="linearGradient3898" x1="350.948" x2="346.252" y1="738.139" y2="733.497" gradientTransform="translate(-394.28572,294.28572)" gradientUnits="userSpaceOnUse" xlink:href="#linearGradient5922"/><linearGradient id="linearGradient3901" x1="359.819" x2="357.749" y1="711.15" y2="695.793" gradientTransform="translate(-394.28572,294.28572)" gradientUnits="userSpaceOnUse" xlink:href="#linearGradient5914"/><linearGradient id="linearGradient3904" x1="392.144" x2="382.725" y1="674.269" y2="674.269" gradientTransform="translate(-394.28572,294.28572)" gradientUnits="userSpaceOnUse" xlink:href="#linearGradient5906"/><linearGradient id="linearGradient3907" x1="455.627" x2="458.452" y1="726.224" y2="718.367" gradientTransform="translate(-394.28572,294.28572)" gradientUnits="userSpaceOnUse" xlink:href="#linearGradient5882"/><linearGradient id="linearGradient3910" x1="434.556" x2="441.206" y1="770.81" y2="764.025" gradientTransform="translate(-394.28572,294.28572)" gradientUnits="userSpaceOnUse" xlink:href="#linearGradient5890"/><linearGradient id="linearGradient3913" x1="384.204" x2="372.399" y1="775.65" y2="776.722" gradientTransform="translate(-394.28572,294.28572)" gradientUnits="userSpaceOnUse" xlink:href="#linearGradient5930"/><radialGradient id="radialGradient3919" cx="454.113" cy="557.926" r="29.351" fx="454.113" fy="557.926" gradientTransform="matrix(0.77507154,0.78119012,-0.7849934,0.77884502,145.8798,285.91467)" gradientUnits="userSpaceOnUse" xlink:href="#linearGradient4925"/></defs><metadata id="metadata4018"/><g id="layer1" transform="translate(0,-988.3622)"><g id="g3905" transform="matrix(0.30511795,0,0,0.30511795,22.021577,706.82009)"><path id="path5200" fill="#000" fill-opacity="1" stroke="none" d="m 515,601.29077 a 87.5,13.928572 0 1 1 -175,0 87.5,13.928572 0 1 1 175,0 z" filter="url(#filter5218)" opacity=".23" transform="translate(-394.71429,499.57143)"/><path id="path4923" fill="url(#radialGradient3919)" fill-opacity="1" stroke="#000" stroke-dasharray="none" stroke-linecap="butt" stroke-linejoin="miter" stroke-miterlimit="4" stroke-opacity=".67" stroke-width="1.5" d="m 29.460045,1061.4444 c 2.42506,8.4587 8.44267,15.6952 15.92944,22.2653 7.48678,6.57 25.107003,15.3113 28.56524,15.2645 3.282444,-0.2461 11.11261,-17.4205 9.19105,-21.3442 -3.28541,-6.2512 -21.46182,-7.1658 -25.72885,-11.7484 -4.26704,-4.5827 -0.31716,-14.5901 -4.10347,-20.1967 -3.78631,-5.6066 -13.49774,-13.1539 -22.2631,-9.6107 -8.76536,3.5433 -4.01537,16.9115 -1.59031,25.3702 z"/><path id="path4448" fill="#f4ecef" fill-opacity="1" stroke="#000" stroke-dasharray="none" stroke-linecap="butt" stroke-linejoin="miter" stroke-miterlimit="4" stroke-opacity="1" stroke-width="1.5" d="m 5.8730146,1106.9725 c 7.6123704,3.4586 19.1381304,7.1932 31.3348604,4.3925 12.5707,-2.8866 21.52104,-10.4299 28.9933,-20.9428 2.77394,-3.9027 0.0155,-8.2829 -1.71918,-11.3821 3.59501,3.1256 5.05022,4.9913 10.22408,3.8007 9.49121,-2.184 17.78991,-6.7152 22.60587,-15.4175 4.853135,-8.7694 3.030455,-19.1399 3.030455,-28.7893 0,-2.1096 -1.424455,-3.5158 -3.030455,-5.5559 2.18991,-0.2502 4.674215,-1.2758 5.555835,-4.0406 3.07954,-9.6574 4.90382,-20.451 2.52538,-30.30454 -2.56775,-10.6378 -10.238175,-19.42877 -16.667505,-28.28427 -2.59635,-3.5761 -6.28963,-6.35047 -10.10153,-8.5863 -13.77082,-8.07712 -12.00796,-22.18955 -42.4264,-22.22336 -21.16091,-0.0235 -29.5140304,8.06836 -39.8704004,17.22861 -1.13496,1.00389 -0.11786,4.6236 -0.53571,6.50998 -1.2205,-1.43411 -5.36099,-3.96693 -8.0812196,-3.03046 -8.35404,2.87598 -16.4304,7.44061 -22.72843,13.63706 -4.56202,4.48844 -6.18512,11.24027 -8.5863,17.17259 -0.50534,1.24848 1.03969,3.18439 0,4.04061 -2.34291,1.92945 -6.66908,0.67752 -8.58629,3.03046 -5.85685,7.18792 -11.11548,15.32112 -13.63706,24.24362 -2.01512,7.1305 -0.58081,14.8937 0.50507,22.2234 0.30117,2.0329 3.53554,2.9957 3.53554,5.0508 0,6.1744 -5.08043,12.2047 -3.53554,18.1827 2.56545,9.9272 7.08992,20.4343 15.15229,26.769 9.54632,7.5007 22.29053,10.6806 34.34519,12.1219 4.5628,0.5455 9.5459096,-4.2495 12.1218296,-6.566 1.52479,2.5631 7.84216,5.9313 9.57632,6.7192 z"/><path id="path4826" fill="url(#radialGradient3760)" fill-opacity="1" stroke="none" d="m 404.06103,492.9902 a 20.708128,28.031733 0 1 1 -41.41625,0 20.708128,28.031733 0 1 1 41.41625,0 z" filter="url(#filter4852)" opacity=".602" transform="matrix(0.72154802,0.6923644,-0.6923644,0.72154802,62.028195,381.38502)"/><path id="path5089" fill="url(#linearGradient3762)" fill-opacity="1" stroke="none" d="m -20.370825,1020.9563 c 7.46327,11.7986 27.1221296,-0.3089 33.33504,-8.8388 6.21291,-8.5299 10.82256,-24.63649 -1.51523,-28.78937 -12.33779043,-4.15288 -39.28308,25.82957 -31.81981,37.62817 z" filter="url(#filter5146)" opacity=".807"/><g id="g4699" opacity=".3"><path id="path4909" fill="url(#linearGradient3913)" fill-opacity="1" stroke="none" d="m -13.299755,1030.5528 c 0,0 -10.3884,35.4017 -9.59645,48.4873 0.79195,13.0855 8.01994,27.422 8.01994,27.422 l 5.9589396,-1.2141 4.88751,-5.1427 c 0,0 -10.2378996,-15.8306 -12.3003996,-27.6312 -2.0625,-11.8007 3.03046,-41.9213 3.03046,-41.9213 z"/><path id="path4911" fill="url(#linearGradient3910)" fill-opacity="1" stroke="none" d="m 22.055585,1035.6035 c 0,0 19.7593,29.4798 27.27412,36.8706 7.51482,7.3908 16.16243,7.8287 16.16243,7.8287 l -3.03044,-8.8389 c 0,0 -9.03346,-4.938 -15.65737,-11.3642 -6.62391,-6.4262 -24.74874,-24.4962 -24.74874,-24.4962 z"/><path id="path4913" fill="url(#linearGradient3907)" fill-opacity="1" stroke="none" d="m 29.126655,1006.3091 c 0,0 13.50069,3.5357 22.72843,6.566 9.22774,3.0302 18.1431,7.3173 25.50635,10.3541 7.36325,3.0367 19.98114,10.3107 19.98114,10.3107 0,0 2.62933,0.5733 4.235725,-2.7822 1.6064,-3.3555 -1.649055,-8.2249 -1.649055,-8.2249 -2.5594,-1.7645 -27.37851,-9.0868 -34.68964,-11.4255 -7.31113,-2.3386 -16.76697,-3.8905 -23.99112,-4.7982 -7.22415,-0.9077 -12.12183,0 -12.12183,0 z"/><path id="path4915" fill="url(#linearGradient3904)" fill-opacity="1" stroke="none" d="m -4.9659954,977.26722 1.26269,-13.38453 c 0,0 -2.40012,-2.355 -3.78807,-3.03045 -1.38795,-0.67545 -4.2931496,-1.01016 -4.2931496,-1.01016 0,0 0.81063,9.73574 2.2728396,12.62691 1.4622,2.89118 4.54569,4.79823 4.54569,4.79823 z"/><path id="path4917" fill="url(#linearGradient3901)" fill-opacity="1" stroke="none" d="m -26.179195,1000.2482 c 0,0 -8.37165,-0.64667 -11.36422,-1.51524 -2.99257,-0.86857 -6.56599,-3.03046 -6.56599,-3.03046 0,0 0.75761,-1.60734 0.75761,-2.27284 0,-0.6655 -0.50507,-1.51523 -0.50507,-1.51523 0,0 3.53693,-1.10771 7.07107,-0.25254 3.53414,0.85517 10.6066,8.58631 10.6066,8.58631 z"/><path id="path4919" fill="url(#linearGradient3898)" fill-opacity="1" stroke="none" d="m -59.766775,1045.4525 c 0,0 1.76366,-6.4044 4.54569,-9.849 2.78203,-3.4446 7.48745,-8.2766 11.86929,-11.1117 4.38184,-2.835 13.8896,-5.8083 13.8896,-5.8083 0,0 -6.8864,4.729 -10.85914,7.8286 -3.97274,3.0997 -9.53543,7.8413 -12.87944,10.8592 -3.34401,3.0178 -6.566,8.0812 -6.566,8.0812 z"/><path id="path4921" fill="url(#linearGradient3895)" fill-opacity="1" stroke="none" d="m 31.071435,965.57647 c 0,0 16.98068,-12.85831 23.57143,-14.64286 6.59075,-1.78455 13.21428,0.35714 13.21428,0.35714 l 5.35715,6.78572 c 0,0 -9.10506,-3.30839 -16.42858,-2.5 -7.32352,0.80839 -25.71428,10 -25.71428,10 z"/></g><path id="path4993" fill="#000" fill-opacity=".27" stroke="none" d="m 395.35715,512.00507 a 12.142858,12.142858 0 1 1 -24.28571,0 12.142858,12.142858 0 1 1 24.28571,0 z" transform="matrix(0.08629815,0,0,0.08629815,-48.260065,978.88275)"/><path id="path4995" fill="#000" fill-opacity=".317" stroke="none" d="m 395.35715,512.00507 a 12.142858,12.142858 0 1 1 -24.28571,0 12.142858,12.142858 0 1 1 24.28571,0 z" transform="matrix(0.08629815,0,0,0.08629815,-38.081495,976.56132)"/><path id="path4997" fill="#000" fill-opacity=".27" stroke="none" d="m 395.35715,512.00507 a 12.142858,12.142858 0 1 1 -24.28571,0 12.142858,12.142858 0 1 1 24.28571,0 z" transform="matrix(0.08629815,0,0,0.08629815,-35.402925,976.47204)"/><path id="path4999" fill="#000" fill-opacity=".27" stroke="none" d="m 395.35715,512.00507 a 12.142858,12.142858 0 1 1 -24.28571,0 12.142858,12.142858 0 1 1 24.28571,0 z" transform="matrix(0.08629815,0,0,0.08629815,-32.992205,979.41846)"/><path id="path5001" fill="#000" fill-opacity=".27" stroke="none" d="m 395.35715,512.00507 a 12.142858,12.142858 0 1 1 -24.28571,0 12.142858,12.142858 0 1 1 24.28571,0 z" transform="matrix(0.08629815,0,0,0.08629815,-27.813635,975.48989)"/><path id="path5003" fill="#000" fill-opacity=".152" stroke="none" d="m 395.35715,512.00507 a 12.142858,12.142858 0 1 1 -24.28571,0 12.142858,12.142858 0 1 1 24.28571,0 z" transform="matrix(0.08629815,0,0,0.08629815,-32.099355,972.98989)"/><path id="path5005" fill="#000" fill-opacity=".27" stroke="none" d="m 395.35715,512.00507 a 12.142858,12.142858 0 1 1 -24.28571,0 12.142858,12.142858 0 1 1 24.28571,0 z" transform="matrix(0.08629815,0,0,0.08629815,-24.152925,967.54346)"/><path id="path5007" fill="#000" fill-opacity=".317" stroke="none" d="m 395.35715,512.00507 a 12.142858,12.142858 0 1 1 -24.28571,0 12.142858,12.142858 0 1 1 24.28571,0 z" transform="matrix(0.08629815,0,0,0.08629815,-17.635065,966.29346)"/><path id="path5009" fill="#000" fill-opacity=".27" stroke="none" d="m 395.35715,512.00507 a 12.142858,12.142858 0 1 1 -24.28571,0 12.142858,12.142858 0 1 1 24.28571,0 z" transform="matrix(0.08629815,0,0,0.08629815,-20.492205,964.68632)"/><path id="path5011" fill="#000" fill-opacity=".27" stroke="none" d="m 395.35715,512.00507 a 12.142858,12.142858 0 1 1 -24.28571,0 12.142858,12.142858 0 1 1 24.28571,0 z" transform="matrix(0.08629815,0,0,0.08629815,-50.581495,980.04346)"/><path id="path5013" fill="#000" fill-opacity=".317" stroke="none" d="m 395.35715,512.00507 a 12.142858,12.142858 0 1 1 -24.28571,0 12.142858,12.142858 0 1 1 24.28571,0 z" transform="matrix(0.08629815,0,0,0.08629815,-48.081495,981.47204)"/><path id="path5015" fill="#000" fill-opacity=".27" stroke="none" d="m 395.35715,512.00507 a 12.142858,12.142858 0 1 1 -24.28571,0 12.142858,12.142858 0 1 1 24.28571,0 z" transform="matrix(0.08629815,0,0,0.08629815,-55.670775,975.75775)"/><path id="path5017" fill="#000" fill-opacity=".27" stroke="none" d="m 395.35715,512.00507 a 12.142858,12.142858 0 1 1 -24.28571,0 12.142858,12.142858 0 1 1 24.28571,0 z" transform="matrix(0.08629815,0,0,0.08629815,-58.706485,969.23989)"/><path id="path5053" fill="#000" fill-opacity=".27" stroke="none" d="m 395.35715,512.00507 a 12.142858,12.142858 0 1 1 -24.28571,0 12.142858,12.142858 0 1 1 24.28571,0 z" transform="matrix(0.08629815,0,0,0.08629815,-54.795765,961.20417)"/><path id="path5055" fill="#000" fill-opacity=".27" stroke="none" d="m 395.35715,512.00507 a 12.142858,12.142858 0 1 1 -24.28571,0 12.142858,12.142858 0 1 1 24.28571,0 z" transform="matrix(0.08629815,0,0,0.08629815,-59.527915,966.73989)"/><path id="path5085" fill="#000" fill-opacity=".27" stroke="none" d="m 395.35715,512.00507 a 12.142858,12.142858 0 1 1 -24.28571,0 12.142858,12.142858 0 1 1 24.28571,0 z" transform="matrix(0.08629815,0,0,0.08629815,-52.742195,973.07917)"/><path id="path5087" fill="#000" fill-opacity=".27" stroke="none" d="m 395.35715,512.00507 a 12.142858,12.142858 0 1 1 -24.28571,0 12.142858,12.142858 0 1 1 24.28571,0 z" transform="matrix(0.08629815,0,0,0.08629815,-53.992195,968.88274)"/><path id="path5057" fill="#000" fill-opacity=".27" stroke="none" d="m 395.35715,512.00507 a 12.142858,12.142858 0 1 1 -24.28571,0 12.142858,12.142858 0 1 1 24.28571,0 z" transform="matrix(0.08629815,0,0,0.08629815,-52.474335,959.50774)"/><path id="path5059" fill="#000" fill-opacity=".27" stroke="none" d="m 395.35715,512.00507 a 12.142858,12.142858 0 1 1 -24.28571,0 12.142858,12.142858 0 1 1 24.28571,0 z" transform="matrix(0.08629815,0,0,0.08629815,-55.242195,952.63274)"/><path id="path5063" fill="#000" fill-opacity=".152" stroke="none" d="m 395.35715,512.00507 a 12.142858,12.142858 0 1 1 -24.28571,0 12.142858,12.142858 0 1 1 24.28571,0 z" transform="matrix(0.08629815,0,0,0.08629815,-47.920775,948.61488)"/><path id="path5065" fill="#000" fill-opacity=".27" stroke="none" d="m 395.35715,512.00507 a 12.142858,12.142858 0 1 1 -24.28571,0 12.142858,12.142858 0 1 1 24.28571,0 z" transform="matrix(0.08629815,0,0,0.08629815,-46.760055,942.00774)"/><path id="path5067" fill="#000" fill-opacity=".27" stroke="none" d="m 395.35715,512.00507 a 12.142858,12.142858 0 1 1 -24.28571,0 12.142858,12.142858 0 1 1 24.28571,0 z" transform="matrix(0.08629815,0,0,0.08629815,-40.331485,941.11488)"/><path id="path5069" fill="#000" fill-opacity=".27" stroke="none" d="m 395.35715,512.00507 a 12.142858,12.142858 0 1 1 -24.28571,0 12.142858,12.142858 0 1 1 24.28571,0 z" transform="matrix(0.08629815,0,0,0.08629815,-48.813625,951.56131)"/><path id="path5071" fill="#000" fill-opacity=".152" stroke="none" d="m 395.35715,512.00507 a 12.142858,12.142858 0 1 1 -24.28571,0 12.142858,12.142858 0 1 1 24.28571,0 z" transform="matrix(0.08629815,0,0,0.08629815,-51.402915,956.73988)"/><path id="path5073" fill="#000" fill-opacity=".317" stroke="none" d="m 395.35715,512.00507 a 12.142858,12.142858 0 1 1 -24.28571,0 12.142858,12.142858 0 1 1 24.28571,0 z" transform="matrix(0.08629815,0,0,0.08629815,-41.135055,943.70417)"/><path id="path5075" fill="#000" fill-opacity=".27" stroke="none" d="m 395.35715,512.00507 a 12.142858,12.142858 0 1 1 -24.28571,0 12.142858,12.142858 0 1 1 24.28571,0 z" transform="matrix(0.08629815,0,0,0.08629815,-16.402915,950.13274)"/><path id="path5077" fill="#000" fill-opacity=".27" stroke="none" d="m 395.35715,512.00507 a 12.142858,12.142858 0 1 1 -24.28571,0 12.142858,12.142858 0 1 1 24.28571,0 z" transform="matrix(0.08629815,0,0,0.08629815,-17.474345,958.16846)"/><path id="path5079" fill="#000" fill-opacity=".27" stroke="none" d="m 395.35715,512.00507 a 12.142858,12.142858 0 1 1 -24.28571,0 12.142858,12.142858 0 1 1 24.28571,0 z" transform="matrix(0.08629815,0,0,0.08629815,-13.010055,946.73988)"/><path id="path5081" fill="#000" fill-opacity=".27" stroke="none" d="m 395.35715,512.00507 a 12.142858,12.142858 0 1 1 -24.28571,0 12.142858,12.142858 0 1 1 24.28571,0 z" transform="matrix(0.08629815,0,0,0.08629815,-17.742205,938.79346)"/><path id="path5156" fill="#000" fill-opacity=".27" stroke="none" d="m 395.35715,512.00507 a 12.142858,12.142858 0 1 1 -24.28571,0 12.142858,12.142858 0 1 1 24.28571,0 z" transform="matrix(0.08629815,0,0,0.08629815,-34.795765,935.84702)"/><path id="path5158" fill="#000" fill-opacity=".152" stroke="none" d="m 395.35715,512.00507 a 12.142858,12.142858 0 1 1 -24.28571,0 12.142858,12.142858 0 1 1 24.28571,0 z" transform="matrix(0.08629815,0,0,0.08629815,-19.974335,940.04345)"/><path id="path5160" fill="#000" fill-opacity=".27" stroke="none" d="m 395.35715,512.00507 a 12.142858,12.142858 0 1 1 -24.28571,0 12.142858,12.142858 0 1 1 24.28571,0 z" transform="matrix(0.08629815,0,0,0.08629815,-25.688625,935.22202)"/><path id="path5162" fill="#000" fill-opacity=".152" stroke="none" d="m 395.35715,512.00507 a 12.142858,12.142858 0 1 1 -24.28571,0 12.142858,12.142858 0 1 1 24.28571,0 z" transform="matrix(0.08629815,0,0,0.08629815,-26.849335,937.27559)"/><path id="path5164" fill="#000" fill-opacity=".27" stroke="none" d="m 395.35715,512.00507 a 12.142858,12.142858 0 1 1 -24.28571,0 12.142858,12.142858 0 1 1 24.28571,0 z" transform="matrix(0.08629815,0,0,0.08629815,-28.367195,935.22201)"/><path id="path4979" fill="#000" fill-opacity=".27" stroke="none" d="m 395.35715,512.00507 a 12.142858,12.142858 0 1 1 -24.28571,0 12.142858,12.142858 0 1 1 24.28571,0 z" transform="matrix(0.11229472,0,0,0.11229472,-55.128735,967.90835)"/><path id="path4973" fill="#000" fill-opacity=".152" stroke="none" d="m 395.35715,512.00507 a 12.142858,12.142858 0 1 1 -24.28571,0 12.142858,12.142858 0 1 1 24.28571,0 z" transform="matrix(0.11229472,0,0,0.11229472,-66.646595,953.89049)"/><path id="path5037" fill="#000" fill-opacity=".27" stroke="none" d="m 395.35715,512.00507 a 12.142858,12.142858 0 1 1 -24.28571,0 12.142858,12.142858 0 1 1 24.28571,0 z" transform="matrix(0.14349061,0,0,0.14349061,-66.452095,948.40038)"/><path id="path5083" fill="#000" fill-opacity=".27" stroke="none" d="m 395.35715,512.00507 a 12.142858,12.142858 0 1 1 -24.28571,0 12.142858,12.142858 0 1 1 24.28571,0 z" transform="matrix(0.14349061,0,0,0.14349061,-79.666385,930.36467)"/><path id="path5039" fill="#000" fill-opacity=".27" stroke="none" d="m 395.35715,512.00507 a 12.142858,12.142858 0 1 1 -24.28571,0 12.142858,12.142858 0 1 1 24.28571,0 z" transform="matrix(0.14349061,0,0,0.14349061,-75.291385,935.36467)"/><path id="path5061" fill="#000" fill-opacity=".27" stroke="none" d="m 395.35715,512.00507 a 12.142858,12.142858 0 1 1 -24.28571,0 12.142858,12.142858 0 1 1 24.28571,0 z" transform="matrix(0.14349061,0,0,0.14349061,-70.916385,915.98967)"/><path id="path5043" fill="#000" fill-opacity=".27" stroke="none" d="m 395.35715,512.00507 a 12.142858,12.142858 0 1 1 -24.28571,0 12.142858,12.142858 0 1 1 24.28571,0 z" transform="matrix(0.14349061,0,0,0.14349061,-74.041385,923.9361)"/><path id="path5045" fill="#000" fill-opacity=".152" stroke="none" d="m 395.35715,512.00507 a 12.142858,12.142858 0 1 1 -24.28571,0 12.142858,12.142858 0 1 1 24.28571,0 z" transform="matrix(0.14349061,0,0,0.14349061,-65.559235,911.61467)"/><path id="path5047" fill="#000" fill-opacity=".27" stroke="none" d="m 395.35715,512.00507 a 12.142858,12.142858 0 1 1 -24.28571,0 12.142858,12.142858 0 1 1 24.28571,0 z" transform="matrix(0.14349061,0,0,0.14349061,-36.273525,929.82895)"/><path id="path5049" fill="#000" fill-opacity=".148" stroke="none" d="m 395.35715,512.00507 a 12.142858,12.142858 0 1 1 -24.28571,0 12.142858,12.142858 0 1 1 24.28571,0 z" transform="matrix(0.14349061,0,0,0.14349061,-35.202095,920.90038)"/><path id="path5051" fill="#000" fill-opacity=".27" stroke="none" d="m 395.35715,512.00507 a 12.142858,12.142858 0 1 1 -24.28571,0 12.142858,12.142858 0 1 1 24.28571,0 z" transform="matrix(0.14349061,0,0,0.14349061,-38.327095,912.23966)"/><path id="path4987" fill="#000" fill-opacity=".152" stroke="none" d="m 395.35715,512.00507 a 12.142858,12.142858 0 1 1 -24.28571,0 12.142858,12.142858 0 1 1 24.28571,0 z" transform="matrix(0.14349061,0,0,0.14349061,-53.416395,906.88252)"/><path id="path4989" fill="#000" fill-opacity=".27" stroke="none" d="m 395.35715,512.00507 a 12.142858,12.142858 0 1 1 -24.28571,0 12.142858,12.142858 0 1 1 24.28571,0 z" transform="matrix(0.14349061,0,0,0.14349061,-58.118335,950.42069)"/><path id="path4991" fill="#000" fill-opacity=".27" stroke="none" d="m 395.35715,512.00507 a 12.142858,12.142858 0 1 1 -24.28571,0 12.142858,12.142858 0 1 1 24.28571,0 z" transform="matrix(0.14349061,0,0,0.14349061,-50.668465,942.97081)"/><path id="path4975" fill="#000" fill-opacity=".27" stroke="none" d="m 395.35715,512.00507 a 12.142858,12.142858 0 1 1 -24.28571,0 12.142858,12.142858 0 1 1 24.28571,0 z" transform="matrix(0.14349061,0,0,0.14349061,-42.587245,938.67766)"/><path id="path4981" fill="#000" fill-opacity=".152" stroke="none" d="m 395.35715,512.00507 a 12.142858,12.142858 0 1 1 -24.28571,0 12.142858,12.142858 0 1 1 24.28571,0 z" transform="matrix(0.17988581,0,0,0.17988581,-88.164795,928.94509)"/><path id="path5019" fill="#000" fill-opacity=".152" stroke="none" d="m 395.35715,512.00507 a 12.142858,12.142858 0 1 1 -24.28571,0 12.142858,12.142858 0 1 1 24.28571,0 z" transform="matrix(0.17988581,0,0,0.17988581,-76.169235,931.84928)"/><path id="path5021" fill="#000" fill-opacity=".27" stroke="none" d="m 395.35715,512.00507 a 12.142858,12.142858 0 1 1 -24.28571,0 12.142858,12.142858 0 1 1 24.28571,0 z" transform="matrix(0.17988581,0,0,0.17988581,-92.240665,924.34928)"/><path id="path5023" fill="#000" fill-opacity=".317" stroke="none" d="m 395.35715,512.00507 a 12.142858,12.142858 0 1 1 -24.28571,0 12.142858,12.142858 0 1 1 24.28571,0 z" transform="matrix(0.17988581,0,0,0.17988581,-93.758525,915.68857)"/><path id="path5025" fill="#000" fill-opacity=".152" stroke="none" d="m 395.35715,512.00507 a 12.142858,12.142858 0 1 1 -24.28571,0 12.142858,12.142858 0 1 1 24.28571,0 z" transform="matrix(0.17988581,0,0,0.17988581,-91.258525,908.54571)"/><path id="path5027" fill="#000" fill-opacity=".317" stroke="none" d="m 395.35715,512.00507 a 12.142858,12.142858 0 1 1 -24.28571,0 12.142858,12.142858 0 1 1 24.28571,0 z" transform="matrix(0.17988581,0,0,0.17988581,-87.508515,901.04571)"/><path id="path5031" fill="#000" fill-opacity=".27" stroke="none" d="m 395.35715,512.00507 a 12.142858,12.142858 0 1 1 -24.28571,0 12.142858,12.142858 0 1 1 24.28571,0 z" transform="matrix(0.17988581,0,0,0.17988581,-52.954945,914.52785)"/><path id="path5033" fill="#000" fill-opacity=".152" stroke="none" d="m 395.35715,512.00507 a 12.142858,12.142858 0 1 1 -24.28571,0 12.142858,12.142858 0 1 1 24.28571,0 z" transform="matrix(0.17988581,0,0,0.17988581,-50.990665,906.49214)"/><path id="path5035" fill="#000" fill-opacity=".317" stroke="none" d="m 395.35715,512.00507 a 12.142858,12.142858 0 1 1 -24.28571,0 12.142858,12.142858 0 1 1 24.28571,0 z" transform="matrix(0.17988581,0,0,0.17988581,-52.419235,897.9207)"/><path id="path5150" fill="#000" fill-opacity=".27" stroke="none" d="m 395.35715,512.00507 a 12.142858,12.142858 0 1 1 -24.28571,0 12.142858,12.142858 0 1 1 24.28571,0 z" transform="matrix(0.17988581,0,0,0.17988581,-80.633515,897.20643)"/><path id="path5152" fill="#000" fill-opacity=".27" stroke="none" d="m 395.35715,512.00507 a 12.142858,12.142858 0 1 1 -24.28571,0 12.142858,12.142858 0 1 1 24.28571,0 z" transform="matrix(0.17988581,0,0,0.17988581,-73.937085,890.24214)"/><path id="path4983" fill="#000" fill-opacity=".27" stroke="none" d="m 395.35715,512.00507 a 12.142858,12.142858 0 1 1 -24.28571,0 12.142858,12.142858 0 1 1 24.28571,0 z" transform="matrix(0.17988581,0,0,0.17988581,-58.222805,889.43857)"/><path id="path4985" fill="#000" fill-opacity=".27" stroke="none" d="m 395.35715,512.00507 a 12.142858,12.142858 0 1 1 -24.28571,0 12.142858,12.142858 0 1 1 24.28571,0 z" transform="matrix(0.17988581,0,0,0.17988581,-67.456665,928.56629)"/><path id="path4943" fill="#000" fill-opacity=".152" stroke="none" d="m 395.35715,512.00507 a 12.142858,12.142858 0 1 1 -24.28571,0 12.142858,12.142858 0 1 1 24.28571,0 z" transform="matrix(0.17988581,0,0,0.17988581,-60.133065,923.51552)"/><g id="g5959" fill="#000" fill-opacity=".098" transform="translate(-394.28572,294.28572)"><path id="path5302" fill="#000" fill-opacity=".098" stroke="none" d="m 403.96702,518.78024 c 0,0 -22.7181,22.20614 -25.71429,31.78572 -2.99619,9.57958 1.42858,19.28571 1.42858,19.28571 0,0 9.67867,-7.96291 14.28571,-16.42857 4.60704,-8.46566 10,-34.64286 10,-34.64286 z" filter="url(#filter5274)" transform="matrix(0.53668629,-0.84378186,0.84378186,0.53668629,-234.89182,813.43283)"/><path id="path5298" fill="#000" fill-opacity=".098" stroke="none" d="m 403.96702,518.78024 c 0,0 -22.7181,22.20614 -25.71429,31.78572 -2.99619,9.57958 1.42858,19.28571 1.42858,19.28571 0,0 9.67867,-7.96291 14.28571,-16.42857 4.60704,-8.46566 10,-34.64286 10,-34.64286 z" filter="url(#filter5274)" transform="matrix(0.90696833,-0.42119882,0.42119882,0.90696833,-215.67286,446.30416)"/><path id="path5300" fill="#000" fill-opacity=".098" stroke="none" d="m 403.96702,518.78024 c 0,0 -22.7181,22.20614 -25.71429,31.78572 -2.99619,9.57958 1.42858,19.28571 1.42858,19.28571 0,0 9.67867,-7.96291 14.28571,-16.42857 4.60704,-8.46566 10,-34.64286 10,-34.64286 z" filter="url(#filter5274)" transform="matrix(0.09778937,-0.99520713,0.99520713,0.09778937,-113.94571,1064.5218)"/><path id="path5280" fill="#000" fill-opacity=".098" stroke="none" d="m 403.96702,518.78024 c 0,0 -22.7181,22.20614 -25.71429,31.78572 -2.99619,9.57958 1.42858,19.28571 1.42858,19.28571 0,0 9.67867,-7.96291 14.28571,-16.42857 4.60704,-8.46566 10,-34.64286 10,-34.64286 z" filter="url(#filter5274)" transform="matrix(-0.07503986,-0.99718053,0.99718053,-0.07503986,-41.708002,1143.665)"/></g><g id="g5940" transform="translate(-394.28572,294.28572)"><path id="path5278" fill="#fff" fill-opacity="1" stroke="none" d="m 360.18383,730.4898 c 0,0 -22.7181,22.20614 -25.71429,31.78572 -2.99619,9.57958 1.42858,19.28571 1.42858,19.28571 0,0 9.67867,-7.96291 14.28571,-16.42857 4.60704,-8.46566 10,-34.64286 10,-34.64286 z" filter="url(#filter5274)"/><path id="path5296" fill="#fff" fill-opacity="1" stroke="none" d="m 403.96702,518.78024 c 0,0 -22.7181,22.20614 -25.71429,31.78572 -2.99619,9.57958 1.42858,19.28571 1.42858,19.28571 0,0 9.67867,-7.96291 14.28571,-16.42857 4.60704,-8.46566 10,-34.64286 10,-34.64286 z" filter="url(#filter5274)" transform="matrix(0.79793172,-0.60274785,0.60274785,0.79793172,-247.48586,572.78285)"/><path id="path5282" fill="#fff" fill-opacity="1" stroke="none" d="m 403.96702,518.78024 c 0,0 -22.7181,22.20614 -25.71429,31.78572 -2.99619,9.57958 1.42858,19.28571 1.42858,19.28571 0,0 9.67867,-7.96291 14.28571,-16.42857 4.60704,-8.46566 10,-34.64286 10,-34.64286 z" filter="url(#filter5274)" transform="matrix(0.21821792,-0.97590007,0.97590007,0.21821792,-168.48111,1014.6199)"/><path id="path5284" fill="#fff" fill-opacity="1" stroke="none" d="m 403.96702,518.78024 c 0,0 -22.7181,22.20614 -25.71429,31.78572 -2.99619,9.57958 1.42858,19.28571 1.42858,19.28571 0,0 9.67867,-7.96291 14.28571,-16.42857 4.60704,-8.46566 10,-34.64286 10,-34.64286 z" filter="url(#filter5352)" transform="matrix(-0.73319295,-0.68002066,0.68002066,-0.73319295,359.59311,1341.9233)"/><path id="path5288" fill="#fff" fill-opacity="1" stroke="none" d="m 403.96702,518.78024 c 0,0 -22.7181,22.20614 -25.71429,31.78572 -2.99619,9.57958 1.42858,19.28571 1.42858,19.28571 0,0 9.67867,-7.96291 14.28571,-16.42857 4.60704,-8.46566 10,-34.64286 10,-34.64286 z" filter="url(#filter5416)" transform="matrix(-0.44628144,0.10343482,-0.10343482,-0.44628144,629.75056,871.18253)"/><path id="path5286" fill="#fff" fill-opacity="1" stroke="none" d="m 403.96702,518.78024 c 0,0 -22.7181,22.20614 -25.71429,31.78572 -2.99619,9.57958 1.42858,19.28571 1.42858,19.28571 0,0 9.67867,-7.96291 14.28571,-16.42857 4.60704,-8.46566 10,-34.64286 10,-34.64286 z" filter="url(#filter5348)" transform="matrix(-0.45631058,0.0405775,-0.0405775,-0.45631058,539.42573,954.98581)"/><path id="path5252" fill="#fff" fill-opacity="1" stroke="none" d="m 403.96702,518.78024 c 0,0 -22.7181,22.20614 -25.71429,31.78572 -2.99619,9.57958 1.42858,19.28571 1.42858,19.28571 0,0 9.67867,-7.96291 14.28571,-16.42857 4.60704,-8.46566 10,-34.64286 10,-34.64286 z" filter="url(#filter5328)" transform="matrix(-0.22052757,0.40153888,-0.40153888,-0.22052757,669.1447,657.22392)"/></g><g id="g5478" stroke="#000" stroke-dasharray="none" stroke-miterlimit="4" stroke-opacity=".051" stroke-width="1.5" transform="translate(-388.57143,513.57143)"><path id="path5420" fill="none" stroke="#000" stroke-dasharray="none" stroke-linecap="butt" stroke-linejoin="miter" stroke-miterlimit="4" stroke-opacity=".051" stroke-width="1.5" d="m 361.42857,513.79075 c 0,0 -16.67365,16.35588 -21.07142,23.92858 -4.39777,7.5727 -6.04022,13.0713 -5.71429,19.28571 0.32593,6.21441 5.35714,17.5 5.35714,17.5"/><path id="path5422" fill="none" stroke="#000" stroke-dasharray="none" stroke-linecap="butt" stroke-linejoin="miter" stroke-miterlimit="4" stroke-opacity=".051" stroke-width="1.5" d="m 363.57143,520.93361 c 0,0 -9.29841,16.63242 -11.42857,24.28571 -2.13016,7.65329 -3.09936,15.0875 -2.14286,20.71429 0.9565,5.62679 5.71429,12.14286 5.71429,12.14286"/><path id="path5424" fill="none" stroke="#000" stroke-dasharray="none" stroke-linecap="butt" stroke-linejoin="miter" stroke-miterlimit="4" stroke-opacity=".051" stroke-width="1.5" d="m 385,524.50504 c 0,0 0.96436,12.68007 2.85714,21.42857 1.89278,8.7485 4.65214,23.91296 9.28572,30.71429 4.63358,6.80133 13.57143,10.71428 13.57143,10.71428"/><path id="path5426" fill="none" stroke="#000" stroke-dasharray="none" stroke-linecap="butt" stroke-linejoin="miter" stroke-miterlimit="4" stroke-opacity=".051" stroke-width="1.5" d="m 397.85714,520.21932 c 0,0 7.69132,27.59293 12.85715,36.42858 5.16583,8.83565 9.96511,14.11431 15,17.14285 5.03489,3.02854 12.14285,2.85715 12.14285,2.85715"/><path id="path5428" fill="none" stroke="#000" stroke-dasharray="none" stroke-linecap="butt" stroke-linejoin="miter" stroke-miterlimit="4" stroke-opacity=".051" stroke-width="1.5" d="m 424.28571,505.21932 c 0,0 31.13357,7.96206 40,14.28572 8.86643,6.32366 12.31482,12.23855 14.28572,17.85714 1.9709,5.61859 0,12.85714 0,12.85714"/><path id="path5430" fill="none" stroke="#000" stroke-dasharray="none" stroke-linecap="butt" stroke-linejoin="miter" stroke-miterlimit="4" stroke-opacity=".051" stroke-width="1.5" d="m 419.28571,518.79075 c 0,0 27.74543,12.52166 34.28572,18.57143 6.54029,6.04977 6.83725,8.6893 7.85714,12.14286 1.01989,3.45356 0,7.14286 0,7.14286"/><path id="path5432" fill="none" stroke="#000" stroke-dasharray="none" stroke-linecap="butt" stroke-linejoin="miter" stroke-miterlimit="4" stroke-opacity=".051" stroke-width="1.5" d="m 422.85714,470.21932 c 0,0 18.98162,-11.66586 26.42857,-12.85714 7.44695,-1.19128 9.92957,-0.32052 15.71429,2.14286 5.78472,2.46338 17.14286,13.57143 17.14286,13.57143"/><path id="path5434" fill="none" stroke="#000" stroke-dasharray="none" stroke-linecap="butt" stroke-linejoin="miter" stroke-miterlimit="4" stroke-opacity=".051" stroke-width="1.5" d="m 425,480.21932 c 0,0 19.42355,-6.88262 28.57143,-5.71428 9.14788,1.16834 19.4878,7.76061 23.57143,11.42857 4.08363,3.66796 3.57143,5.71429 3.57143,5.71429"/><path id="path5436" fill="none" stroke="#000" stroke-dasharray="none" stroke-linecap="butt" stroke-linejoin="miter" stroke-miterlimit="4" stroke-opacity=".051" stroke-width="1.5" d="m 406.42857,457.36218 c 0,0 2.09237,-12.62772 5.71429,-17.14286 3.62192,-4.51514 14.28571,-8.57142 14.28571,-8.57142"/><path id="path5438" fill="none" stroke="#000" stroke-dasharray="none" stroke-linecap="butt" stroke-linejoin="miter" stroke-miterlimit="4" stroke-opacity=".051" stroke-width="1.5" d="m 397.14286,457.36218 c 0,0 -0.31262,-6.93194 0.71428,-10.71428 1.0269,-3.78234 5.71429,-11.42858 5.71429,-11.42858"/><path id="path5440" fill="none" stroke="#000" stroke-dasharray="none" stroke-linecap="butt" stroke-linejoin="miter" stroke-miterlimit="4" stroke-opacity=".051" stroke-width="1.5" d="m 370,465.21932 -5.71429,-8.57142"/><path id="path5442" fill="none" stroke="#000" stroke-dasharray="none" stroke-linecap="butt" stroke-linejoin="miter" stroke-miterlimit="4" stroke-opacity=".051" stroke-width="1.5" d="m 363.57143,473.79075 -9.28572,-5.71428"/><path id="path5444" fill="none" stroke="#000" stroke-dasharray="none" stroke-linecap="butt" stroke-linejoin="miter" stroke-miterlimit="4" stroke-opacity=".051" stroke-width="1.5" d="m 353.57143,490.21932 -15,0.71429"/><path id="path5446" fill="none" stroke="#000" stroke-dasharray="none" stroke-linecap="butt" stroke-linejoin="miter" stroke-miterlimit="4" stroke-opacity=".051" stroke-width="1.5" d="m 351.42857,500.93361 c 0,0 -13.06885,0.17454 -17.14286,2.85714 -4.07401,2.6826 -6.42857,10 -6.42857,10"/></g><g id="g4398" clip-path="url(#clipPath4710)" filter="url(#filter4924)" opacity=".857" transform="translate(-394.28572,294.28572)"><g id="g4174" stroke="#fd0098" stroke-dasharray="none" stroke-miterlimit="4" stroke-opacity="1" stroke-width="1.5"><path id="path4176" fill="none" stroke="#fd0098" stroke-dasharray="none" stroke-linecap="butt" stroke-linejoin="miter" stroke-miterlimit="4" stroke-opacity="1" stroke-width="1.5" d="m 405.99964,743.11237 c 1.54762,20 7.02381,45.71429 21.78571,52.5"/><path id="path4178" fill="none" stroke="#fd0098" stroke-dasharray="none" stroke-linecap="butt" stroke-linejoin="miter" stroke-miterlimit="4" stroke-opacity="1" stroke-width="1.5" d="m 435.71213,725.22106 c 19.03375,6.33335 42.66348,17.85937 45.68205,33.82332"/><path id="path4180" fill="none" stroke="#fd0098" stroke-dasharray="none" stroke-linecap="butt" stroke-linejoin="miter" stroke-miterlimit="4" stroke-opacity="1" stroke-width="1.5" d="m 426.20059,682.737 c 19.2336,-5.69769 45.20772,-9.76684 56.81825,1.5978"/><path id="path4182" fill="none" stroke="#fd0098" stroke-dasharray="none" stroke-linecap="butt" stroke-linejoin="miter" stroke-miterlimit="4" stroke-opacity="1" stroke-width="1.5" d="m 371.42144,739.19957 c -11.67951,16.30903 -24.02654,39.52032 -17.08842,54.21119"/><path id="path4184" fill="none" stroke="#fd0098" stroke-dasharray="none" stroke-linecap="butt" stroke-linejoin="miter" stroke-miterlimit="4" stroke-opacity="1" stroke-width="1.5" d="m 398.46464,681.39612 c 0.61186,-8.82491 5.96766,-23.06479 19.79705,-26.83691"/><path id="path4186" fill="none" stroke="#fd0098" stroke-dasharray="none" stroke-linecap="butt" stroke-linejoin="miter" stroke-miterlimit="4" stroke-opacity="1" stroke-width="1.5" d="m 370.85257,693.24046 c -3.70037,-4.61961 -3.1875,-10.28781 -11.85191,-6.62457"/><path id="path4188" fill="none" stroke="#fd0098" stroke-dasharray="none" stroke-linecap="butt" stroke-linejoin="miter" stroke-miterlimit="4" stroke-opacity="1" stroke-width="1.5" d="m 334.59144,728.91401 c 4.83504,-7.40782 11.40072,-13.6966 25.31501,-10.2508"/></g><g id="g4190" stroke="#ca4f23" stroke-dasharray="none" stroke-miterlimit="4" stroke-opacity="1" stroke-width="1.5" transform="matrix(0.98953502,0.1442929,-0.1442929,0.98953502,108.90287,-51.399671)"><path id="path4192" fill="none" stroke="#ca4f23" stroke-dasharray="none" stroke-linecap="butt" stroke-linejoin="miter" stroke-miterlimit="4" stroke-opacity="1" stroke-width="1.5" d="m 405.99964,743.11237 c 1.54762,20 7.02381,45.71429 21.78571,52.5"/><path id="path4194" fill="none" stroke="#ca4f23" stroke-dasharray="none" stroke-linecap="butt" stroke-linejoin="miter" stroke-miterlimit="4" stroke-opacity="1" stroke-width="1.5" d="m 435.71213,725.22106 c 19.03375,6.33335 42.66348,17.85937 45.68205,33.82332"/><path id="path4196" fill="none" stroke="#ca4f23" stroke-dasharray="none" stroke-linecap="butt" stroke-linejoin="miter" stroke-miterlimit="4" stroke-opacity="1" stroke-width="1.5" d="m 426.20059,682.737 c 19.2336,-5.69769 45.20772,-9.76684 56.81825,1.5978"/><path id="path4198" fill="none" stroke="#ca4f23" stroke-dasharray="none" stroke-linecap="butt" stroke-linejoin="miter" stroke-miterlimit="4" stroke-opacity="1" stroke-width="1.5" d="m 371.42144,739.19957 c -11.67951,16.30903 -24.02654,39.52032 -17.08842,54.21119"/><path id="path4200" fill="none" stroke="#ca4f23" stroke-dasharray="none" stroke-linecap="butt" stroke-linejoin="miter" stroke-miterlimit="4" stroke-opacity="1" stroke-width="1.5" d="m 398.46464,681.39612 c 0.61186,-8.82491 5.96766,-23.06479 19.79705,-26.83691"/><path id="path4202" fill="none" stroke="#ca4f23" stroke-dasharray="none" stroke-linecap="butt" stroke-linejoin="miter" stroke-miterlimit="4" stroke-opacity="1" stroke-width="1.5" d="m 370.85257,693.24046 c -3.70037,-4.61961 -3.1875,-10.28781 -11.85191,-6.62457"/><path id="path4204" fill="none" stroke="#ca4f23" stroke-dasharray="none" stroke-linecap="butt" stroke-linejoin="miter" stroke-miterlimit="4" stroke-opacity="1" stroke-width="1.5" d="m 334.59144,728.91401 c 4.83504,-7.40782 11.40072,-13.6966 25.31501,-10.2508"/></g><g id="g4137" stroke="#d6bc17" stroke-dasharray="none" stroke-miterlimit="4" stroke-opacity="1" stroke-width="1.5" transform="matrix(0.9606394,0.27779839,-0.27779839,0.9606394,217.82293,-85.36948)"><path id="path4038" fill="none" stroke="#d6bc17" stroke-dasharray="none" stroke-linecap="butt" stroke-linejoin="miter" stroke-miterlimit="4" stroke-opacity="1" stroke-width="1.5" d="m 405.99964,743.11237 c 1.54762,20 7.02381,45.71429 21.78571,52.5"/><path id="path4040" fill="none" stroke="#d6bc17" stroke-dasharray="none" stroke-linecap="butt" stroke-linejoin="miter" stroke-miterlimit="4" stroke-opacity="1" stroke-width="1.5" d="m 435.71213,725.22106 c 19.03375,6.33335 42.66348,17.85937 45.68205,33.82332"/><path id="path4042" fill="none" stroke="#d6bc17" stroke-dasharray="none" stroke-linecap="butt" stroke-linejoin="miter" stroke-miterlimit="4" stroke-opacity="1" stroke-width="1.5" d="m 426.20059,682.737 c 19.2336,-5.69769 45.20772,-9.76684 56.81825,1.5978"/><path id="path4044" fill="none" stroke="#d6bc17" stroke-dasharray="none" stroke-linecap="butt" stroke-linejoin="miter" stroke-miterlimit="4" stroke-opacity="1" stroke-width="1.5" d="m 371.42144,739.19957 c -11.67951,16.30903 -24.02654,39.52032 -17.08842,54.21119"/><path id="path4133" fill="none" stroke="#d6bc17" stroke-dasharray="none" stroke-linecap="butt" stroke-linejoin="miter" stroke-miterlimit="4" stroke-opacity="1" stroke-width="1.5" d="m 398.46464,681.39612 c 0.61186,-8.82491 5.96766,-23.06479 19.79705,-26.83691"/><path id="path4135" fill="none" stroke="#d6bc17" stroke-dasharray="none" stroke-linecap="butt" stroke-linejoin="miter" stroke-miterlimit="4" stroke-opacity="1" stroke-width="1.5" d="m 370.85257,693.24046 c -3.70037,-4.61961 -3.1875,-10.28781 -11.85191,-6.62457"/><path id="path4046" fill="none" stroke="#d6bc17" stroke-dasharray="none" stroke-linecap="butt" stroke-linejoin="miter" stroke-miterlimit="4" stroke-opacity="1" stroke-width="1.5" d="m 334.59144,728.91401 c 4.83504,-7.40782 11.40072,-13.6966 25.31501,-10.2508"/></g></g></g></g></svg>